<?xml version="1.0" encoding="UTF-8"?>
<svg id="HORIZONTAL_2" data-name="HORIZONTAL #2" xmlns="http://www.w3.org/2000/svg" viewBox="0 0 1199.42 312.05">
  <defs>
    <style>
      .cls-1 {
        fill: #daa520;
      }

      .cls-2 {
        fill: #f7f7f7;
      }
    </style>
  </defs>
  <g>
    <path class="cls-2" d="M350.84,25.2v114.05h-24.48V25.2h24.48ZM374.02,139.25l-20.3-63.5V25.2h7.49l19.58,78.33,19.15-78.33h7.63v51.41l-21.02,62.64h-12.53ZM435.37,25.2v114.05h-24.77V25.2h24.77Z"/>
    <path class="cls-2" d="M506.21,25.2l28.94,114.05h-27.5l-5.33-23.9h-22.75l3.74-19.01h15.12l-8.93-46.37-20.16,89.28h-25.92l28.94-114.05h33.84Z"/>
    <path class="cls-2" d="M605.72,25.2v19.15h-81.21v-19.15h81.21ZM551.86,48.81h26.21v90.43h-26.21V48.81Z"/>
    <path class="cls-2" d="M641,25.2v114.05h-26.35V25.2h26.35ZM645.03,25.2h34.27v19.15h-34.27v-19.15ZM645.03,70.41h32.26v19.01h-32.26v-19.01ZM679.3,139.25h-34.27v-19.73h34.27v19.73Z"/>
    <path class="cls-2" d="M715.16,25.2v114.05h-24.48V25.2h24.48ZM738.34,139.25l-20.3-63.5V25.2h7.49l19.58,78.33,19.15-78.33h7.63v51.41l-21.02,62.64h-12.53ZM799.68,25.2v114.05h-24.77V25.2h24.77Z"/>
    <path class="cls-2" d="M870.53,25.2l28.94,114.05h-27.5l-5.33-23.9h-22.75l3.74-19.01h15.12l-8.93-46.37-20.16,89.28h-25.92l28.94-114.05h33.84ZM834.82,15.84l12.82-15.84h29.95l-25.49,15.84h-17.28Z"/>
    <path class="cls-2" d="M970.04,25.2v19.15h-81.21v-19.15h81.21ZM916.18,48.81h26.21v90.43h-26.21V48.81Z"/>
    <path class="cls-2" d="M978.96,25.2h26.93v114.05h-26.93V25.2Z"/>
    <path class="cls-2" d="M1019.57,53.85c0-19.58,12.38-29.95,37.3-31.1v18.72c-7.06.86-10.51,4.61-10.51,11.38v59.33c0,6.34,3.46,9.94,10.51,10.94v18.43c-24.91-1.01-37.3-12.1-37.3-33.55v-54.14ZM1062.19,22.61c25.78.14,38.73,10.8,38.73,31.68v10.66h-27.36v-12.1c0-7.34-3.74-11.09-11.38-11.52v-18.72ZM1062.19,123.12c7.63-.72,11.38-4.32,11.38-10.94v-15.7h27.36v12.24c0,21.31-12.96,32.26-38.73,32.83v-18.43Z"/>
    <path class="cls-2" d="M1170.48,25.2l28.94,114.05h-27.5l-5.33-23.9h-22.75l3.74-19.01h15.12l-8.93-46.37-20.16,89.28h-25.92l28.94-114.05h33.84Z"/>
    <path class="cls-2" d="M352.42,198v114.05h-26.06v-114.05h26.06ZM356.46,198h13.54c24.34,0,36.58,10.66,36.58,32.11v49.39c0,21.74-12.24,32.54-36.86,32.54h-13.25v-19.44h9.36c9.79,0,13.82-3.17,13.82-10.08v-53.42c0-8.21-4.32-11.66-14.11-11.66h-9.07v-19.44Z"/>
    <path class="cls-2" d="M446.6,198v114.05h-26.35v-114.05h26.35ZM450.63,198h34.27v19.15h-34.27v-19.15ZM450.63,243.21h32.26v19.01h-32.26v-19.01ZM484.9,312.04h-34.27v-19.73h34.27v19.73Z"/>
    <path class="cls-2" d="M571.3,198v114.05h-26.35v-114.05h26.35ZM575.33,198h34.27v19.15h-34.27v-19.15ZM575.33,243.21h32.26v19.01h-32.26v-19.01ZM609.61,312.04h-34.27v-19.73h34.27v19.73Z"/>
    <path class="cls-2" d="M647.19,198v114.05h-26.21v-114.05h26.21ZM682.47,312.04h-30.24v-19.15h30.24v19.15Z"/>
    <path class="cls-2" d="M692.12,198h26.93v114.05h-26.93v-114.05Z"/>
    <path class="cls-2" d="M809.91,198v19.15h-81.21v-19.15h81.21ZM756.05,221.61h26.21v90.43h-26.21v-90.43Z"/>
    <path class="cls-2" d="M845.19,198v114.05h-26.35v-114.05h26.35ZM849.22,198h34.27v19.15h-34.27v-19.15ZM849.22,243.21h32.26v19.01h-32.26v-19.01ZM883.49,312.04h-34.27v-19.73h34.27v19.73Z"/>
  </g>
  <g>
    <polygon class="cls-1" points="54.66 208.08 67.56 247.79 109.31 247.79 75.53 272.34 88.43 312.04 54.66 287.5 20.88 312.04 33.78 272.34 0 247.79 41.75 247.79 54.66 208.08"/>
    <polygon class="cls-1" points="219.98 208.08 232.88 247.79 274.63 247.79 240.85 272.34 253.76 312.04 219.98 287.5 186.2 312.04 199.1 272.34 165.32 247.79 207.07 247.79 219.98 208.08"/>
  </g>
  <polygon class="cls-1" points="137.32 25.2 156.83 85.26 219.98 85.26 168.89 122.37 188.4 182.43 137.32 145.31 86.23 182.43 105.74 122.37 54.66 85.26 117.8 85.26 137.32 25.2"/>
  <g>
    <polygon class="cls-1" points="1071.87 224.08 899.47 224.08 899.47 198 1081.58 198 1071.87 224.08"/>
    <polygon class="cls-1" points="1065.21 241.98 1055.5 268.06 899.47 268.06 899.47 241.98 1065.21 241.98"/>
    <polygon class="cls-1" points="1048.84 285.96 1039.13 312.05 899.47 312.05 899.47 285.96 1048.84 285.96"/>
  </g>
</svg>