<?xml version="1.0" encoding="UTF-8"?>
<svg id="FAVICOM_SITE" data-name="FAVICOM SITE" xmlns="http://www.w3.org/2000/svg" viewBox="0 0 64 64">
  <defs>
    <style>
      .cls-1 {
        fill: #daa520;
      }
    </style>
  </defs>
  <polygon class="cls-1" points="15.36 34.78 18.99 45.94 30.72 45.94 21.23 52.84 24.85 64 15.36 57.1 5.87 64 9.49 52.84 0 45.94 11.73 45.94 15.36 34.78"/>
  <polygon class="cls-1" points="48.64 34.78 52.27 45.94 64 45.94 54.51 52.84 58.13 64 48.64 57.1 39.15 64 42.77 52.84 33.28 45.94 45.01 45.94 48.64 34.78"/>
  <polygon class="cls-1" points="32 0 35.63 11.16 47.36 11.16 37.87 18.06 41.49 29.22 32 22.32 22.51 29.22 26.13 18.06 16.64 11.16 28.37 11.16 32 0"/>
</svg>