<?xml version="1.0" encoding="UTF-8" standalone="no"?><!DOCTYPE svg PUBLIC "-//W3C//DTD SVG 1.1//EN" "http://www.w3.org/Graphics/SVG/1.1/DTD/svg11.dtd"><svg width="100%" height="100%" viewBox="0 0 5001 2048" version="1.1" xmlns="http://www.w3.org/2000/svg" xmlns:xlink="http://www.w3.org/1999/xlink" xml:space="preserve" xmlns:serif="http://www.serif.com/" style="fill-rule:evenodd;clip-rule:evenodd;stroke-linejoin:round;stroke-miterlimit:2;"><rect id="LOGO-HORIZONTAL" serif:id="LOGO HORIZONTAL" x="0" y="0" width="5000.025" height="2048" style="fill:none;"/><clipPath id="_clip1"><rect x="0" y="0" width="5000.025" height="2048"/></clipPath><g clip-path="url(#_clip1)"><g id="Conteúdo-bruto" serif:id="Conteúdo bruto"><g id="Imagem"><path id="Rosa-dos-ventos" serif:id="Rosa dos ventos" d="M422.548,1273.34c-25.239,-60.746 -41.538,-126.126 -47.252,-194.495l-375.296,-54.845l375.296,-54.845c5.714,-68.369 22.014,-133.749 47.252,-194.495l0,97.57c-7.552,29.977 -12.919,60.819 -15.922,92.346l15.922,-2.327l0,61.751l-238.117,0l238.117,32.745l0,29.006l-15.922,-2.327c3.003,31.527 8.37,62.369 15.922,92.346l0,97.57Zm148.568,-716.795c104.904,-101.658 243.873,-168.364 398.039,-181.25l54.845,-375.296l54.845,375.296c154.166,12.885 293.135,79.591 398.039,181.25c-9.338,5.111 -18.593,10.506 -27.713,16.106c-97.524,-91.909 -224.788,-152.6 -365.748,-166.025l64.265,439.754l-123.689,132.223l0,-794.171l-95.215,692.387l-28.474,-30.438l64.265,-439.754c-140.959,13.425 -268.224,74.116 -365.748,166.025c-9.12,-5.6 -18.375,-10.995 -27.713,-16.106Zm1054.336,218.115c25.239,60.746 41.538,126.126 47.252,194.495l375.296,54.845l-375.296,54.845c-5.714,68.369 -22.014,133.749 -47.252,194.495l0,-97.57c7.552,-29.977 12.919,-60.819 15.922,-92.346l-15.922,2.327l0,-61.751l238.117,0l-238.117,-32.745l0,-29.006l15.922,2.327c-3.003,-31.527 -8.37,-62.369 -15.922,-92.346l0,-97.57Zm-155.842,723.737c-104.014,97.749 -240.135,161.718 -390.764,174.307l-54.845,375.296l-54.845,-375.296c-150.629,-12.59 -286.75,-76.558 -390.764,-174.307l39.346,-5.944c94.812,82.312 214.819,136.346 346.84,148.92l-48.259,-330.228l107.683,130.02l0,422.403l69.321,-504.089l38.362,-48.334l-48.259,330.228c132.02,-12.574 252.028,-66.608 346.84,-148.92l39.346,5.944Z" style="fill:#daa520;"/><path id="Letra-M" serif:id="Letra M" d="M1024,1234.146l-580.619,-701.359c139.835,15.294 318.998,196.643 318.998,196.643l261.62,279.67l261.62,-279.67c0,0 179.163,-181.348 318.998,-196.643l-580.619,701.359Zm0,179.163l-456.078,-574.634l0,347.402c0,196.643 -187.903,273.115 -187.903,273.115c69.917,-63.363 63.363,-185.718 63.363,-185.718l0,-644.551l580.619,738.503l580.619,-738.503l0,644.551c0,0 -6.555,122.356 63.363,185.718c0,0 -187.903,-76.472 -187.903,-273.115l0,-347.402l-456.078,574.634Zm272.72,-306.413l32.162,-40.734l0,338.583l339.1,72.714l52.438,37.755l-462.853,-69.917l39.154,-39.154l0,-299.247Zm-545.439,0l0,299.247l39.154,39.154l-462.853,69.917l52.438,-37.755l339.1,-72.714l0,-338.583l32.162,40.734Z" style="fill:#daa520;"/></g><g transform="matrix(1,0,0,1,-8886.790931,248.138617)"><text x="11135.966px" y="723.436px" style="font-family:'Gunplay-Regular', 'Gunplay', fantasy;font-size:450px;fill:#fff;">MA<tspan x="11770.016px 12036.866px " y="723.436px 723.436px ">TE</tspan>MÁ<tspan x="12908.516px 13175.366px " y="723.436px 723.436px ">TI</tspan>CA</text><g transform="matrix(450,0,0,450,12912.565562,1263.436383)"></g><text x="11135.966px" y="1263.436px" style="font-family:'Gunplay-Regular', 'Gunplay', fantasy;font-size:450px;fill:#fff;">DE ELITE</text></g></g><g id="Imagem1" serif:id="Imagem"><path id="Rosa-dos-ventos1" serif:id="Rosa dos ventos" d="M422.548,1273.34c-25.239,-60.746 -41.538,-126.126 -47.252,-194.495l-375.296,-54.845l375.296,-54.845c5.714,-68.369 22.014,-133.749 47.252,-194.495l0,97.57c-7.552,29.977 -12.919,60.819 -15.922,92.346l15.922,-2.327l0,61.751l-238.117,0l238.117,32.745l0,29.006l-15.922,-2.327c3.003,31.527 8.37,62.369 15.922,92.346l0,97.57Zm148.568,-716.795c104.904,-101.658 243.873,-168.364 398.039,-181.25l54.845,-375.296l54.845,375.296c154.166,12.885 293.135,79.591 398.039,181.25c-9.338,5.111 -18.593,10.506 -27.713,16.106c-97.524,-91.909 -224.788,-152.6 -365.748,-166.025l64.265,439.754l-123.689,132.223l0,-794.171l-95.215,692.387l-28.474,-30.438l64.265,-439.754c-140.959,13.425 -268.224,74.116 -365.748,166.025c-9.12,-5.6 -18.375,-10.995 -27.713,-16.106Zm1054.336,218.115c25.239,60.746 41.538,126.126 47.252,194.495l375.296,54.845l-375.296,54.845c-5.714,68.369 -22.014,133.749 -47.252,194.495l0,-97.57c7.552,-29.977 12.919,-60.819 15.922,-92.346l-15.922,2.327l0,-61.751l238.117,0l-238.117,-32.745l0,-29.006l15.922,2.327c-3.003,-31.527 -8.37,-62.369 -15.922,-92.346l0,-97.57Zm-155.842,723.737c-104.014,97.749 -240.135,161.718 -390.764,174.307l-54.845,375.296l-54.845,-375.296c-150.629,-12.59 -286.75,-76.558 -390.764,-174.307l39.346,-5.944c94.812,82.312 214.819,136.346 346.84,148.92l-48.259,-330.228l107.683,130.02l0,422.403l69.321,-504.089l38.362,-48.334l-48.259,330.228c132.02,-12.574 252.028,-66.608 346.84,-148.92l39.346,5.944Z" style="fill:#daa520;"/><path id="Letra-M1" serif:id="Letra M" d="M1024,1234.146l-580.619,-701.359c139.835,15.294 318.998,196.643 318.998,196.643l261.62,279.67l261.62,-279.67c0,0 179.163,-181.348 318.998,-196.643l-580.619,701.359Zm0,179.163l-456.078,-574.634l0,347.402c0,196.643 -187.903,273.115 -187.903,273.115c69.917,-63.363 63.363,-185.718 63.363,-185.718l0,-644.551l580.619,738.503l580.619,-738.503l0,644.551c0,0 -6.555,122.356 63.363,185.718c0,0 -187.903,-76.472 -187.903,-273.115l0,-347.402l-456.078,574.634Zm272.72,-306.413l32.162,-40.734l0,338.583l339.1,72.714l52.438,37.755l-462.853,-69.917l39.154,-39.154l0,-299.247Zm-545.439,0l0,299.247l39.154,39.154l-462.853,69.917l52.438,-37.755l339.1,-72.714l0,-338.583l32.162,40.734Z" style="fill:#daa520;"/></g><g><path d="M2271.675,615.175l0,356.4l76.5,0l0,-356.4l-76.5,0Zm263.25,0l0,356.4l77.4,0l0,-356.4l-77.4,0Zm-75.15,356.4l65.7,-195.75l0,-160.65l-23.85,0l-59.85,244.8l-61.2,-244.8l-23.4,0l0,157.95l63.45,198.45l39.15,0Z" style="fill:#fff;fill-rule:nonzero;"/><path d="M2727.975,615.175l-90.45,356.4l81,0l63,-279l27.9,144.9l-47.25,0l-11.7,59.4l71.1,0l16.65,74.7l85.95,0l-90.45,-356.4l-105.75,0Z" style="fill:#fff;fill-rule:nonzero;"/><path d="M2890.875,615.175l0,59.85l253.8,0l0,-59.85l-253.8,0Zm85.5,356.4l81.9,0l0,-282.6l-81.9,0l0,282.6Z" style="fill:#fff;fill-rule:nonzero;"/><path d="M3267.525,815.875l100.8,0l0,-59.4l-100.8,0l0,59.4Zm0,-140.85l107.1,0l0,-59.85l-107.1,0l0,59.85Zm107.1,234.9l-107.1,0l0,61.65l107.1,0l0,-61.65Zm-202.05,-294.75l0,356.4l82.35,0l0,-356.4l-82.35,0Z" style="fill:#fff;fill-rule:nonzero;"/><path d="M3410.175,615.175l0,356.4l76.5,0l0,-356.4l-76.5,0Zm263.25,0l0,356.4l77.4,0l0,-356.4l-77.4,0Zm-75.15,356.4l65.7,-195.75l0,-160.65l-23.85,0l-59.85,244.8l-61.2,-244.8l-23.4,0l0,157.95l63.45,198.45l39.15,0Z" style="fill:#fff;fill-rule:nonzero;"/><path d="M3866.475,615.175l-90.45,356.4l81,0l63,-279l27.9,144.9l-47.25,0l-11.7,59.4l71.1,0l16.65,74.7l85.95,0l-90.45,-356.4l-105.75,0Zm48.15,-29.25l79.65,-49.5l-93.6,0l-40.05,49.5l54,0Z" style="fill:#fff;fill-rule:nonzero;"/><path d="M4029.375,615.175l0,59.85l253.8,0l0,-59.85l-253.8,0Zm85.5,356.4l81.9,0l0,-282.6l-81.9,0l0,282.6Z" style="fill:#fff;fill-rule:nonzero;"/><rect x="4311.075" y="615.175" width="84.15" height="356.4" style="fill:#fff;fill-rule:nonzero;"/><path d="M4571.175,665.575c23.85,1.35 35.55,13.05 35.55,36l0,37.8l85.5,0l0,-33.3c0,-65.25 -40.5,-98.55 -121.05,-99l0,58.5Zm0,313.2c80.55,-1.8 121.05,-36 121.05,-102.6l0,-38.25l-85.5,0l0,49.05c0,20.7 -11.7,31.95 -35.55,34.2l0,57.6Zm-133.2,-104.85c0,67.05 38.7,101.7 116.55,104.85l0,-57.6c-22.05,-3.15 -32.85,-14.4 -32.85,-34.2l0,-185.4c0,-21.15 10.8,-32.85 32.85,-35.55l0,-58.5c-77.85,3.6 -116.55,36 -116.55,97.2l0,169.2Z" style="fill:#fff;fill-rule:nonzero;"/><path d="M4803.825,615.175l-90.45,356.4l81,0l63,-279l27.9,144.9l-47.25,0l-11.7,59.4l71.1,0l16.65,74.7l85.95,0l-90.45,-356.4l-105.75,0Z" style="fill:#fff;fill-rule:nonzero;"/><path d="M2365.725,1215.925l28.35,0c30.6,0 44.1,10.8 44.1,36.45l0,166.95c0,21.6 -12.6,31.5 -43.2,31.5l-29.25,0l0,60.75l41.4,0c76.95,0 115.2,-33.75 115.2,-101.7l0,-154.35c0,-67.05 -38.25,-100.35 -114.3,-100.35l-42.3,0l0,60.75Zm-94.05,-60.75l0,356.4l81.45,0l0,-356.4l-81.45,0Z" style="fill:#fff;fill-rule:nonzero;"/><path d="M2660.025,1355.875l100.8,0l0,-59.4l-100.8,0l0,59.4Zm0,-140.85l107.1,0l0,-59.85l-107.1,0l0,59.85Zm107.1,234.9l-107.1,0l0,61.65l107.1,0l0,-61.65Zm-202.05,-294.75l0,356.4l82.35,0l0,-356.4l-82.35,0Z" style="fill:#fff;fill-rule:nonzero;"/><path d="M3049.725,1355.875l100.8,0l0,-59.4l-100.8,0l0,59.4Zm0,-140.85l107.1,0l0,-59.85l-107.1,0l0,59.85Zm107.1,234.9l-107.1,0l0,61.65l107.1,0l0,-61.65Zm-202.05,-294.75l0,356.4l82.35,0l0,-356.4l-82.35,0Z" style="fill:#fff;fill-rule:nonzero;"/><path d="M3192.375,1155.175l0,356.4l81.9,0l0,-356.4l-81.9,0Zm192.15,296.55l-94.5,0l0,59.85l94.5,0l0,-59.85Z" style="fill:#fff;fill-rule:nonzero;"/><rect x="3414.675" y="1155.175" width="84.15" height="356.4" style="fill:#fff;fill-rule:nonzero;"/><path d="M3528.975,1155.175l0,59.85l253.8,0l0,-59.85l-253.8,0Zm85.5,356.4l81.9,0l0,-282.6l-81.9,0l0,282.6Z" style="fill:#fff;fill-rule:nonzero;"/><path d="M3905.625,1355.875l100.8,0l0,-59.4l-100.8,0l0,59.4Zm0,-140.85l107.1,0l0,-59.85l-107.1,0l0,59.85Zm107.1,234.9l-107.1,0l0,61.65l107.1,0l0,-61.65Zm-202.05,-294.75l0,356.4l82.35,0l0,-356.4l-82.35,0Z" style="fill:#fff;fill-rule:nonzero;"/></g></g></svg>