<?xml version="1.0" encoding="UTF-8" standalone="no"?><!DOCTYPE svg PUBLIC "-//W3C//DTD SVG 1.1//EN" "http://www.w3.org/Graphics/SVG/1.1/DTD/svg11.dtd"><svg width="100%" height="100%" viewBox="0 0 6000 2048" version="1.1" xmlns="http://www.w3.org/2000/svg" xmlns:xlink="http://www.w3.org/1999/xlink" xml:space="preserve" xmlns:serif="http://www.serif.com/" style="fill-rule:evenodd;clip-rule:evenodd;stroke-linejoin:round;stroke-miterlimit:2;"><rect id="LOGO-HORIZONTAL" serif:id="LOGO HORIZONTAL" x="0" y="0" width="5999.965" height="2048" style="fill:none;"/><clipPath id="_clip1"><rect x="0" y="0" width="5999.965" height="2048"/></clipPath><g clip-path="url(#_clip1)"><g id="Imagem"><path id="Rosa-dos-ventos" serif:id="Rosa dos ventos" d="M422.548,1273.34c-25.239,-60.746 -41.538,-126.126 -47.252,-194.495l-375.296,-54.845l375.296,-54.845c5.714,-68.369 22.014,-133.749 47.252,-194.495l0,97.57c-7.552,29.977 -12.919,60.819 -15.922,92.346l15.922,-2.327l0,61.751l-238.117,0l238.117,32.745l0,29.006l-15.922,-2.327c3.003,31.527 8.37,62.369 15.922,92.346l0,97.57Zm148.568,-716.795c104.904,-101.658 243.873,-168.364 398.039,-181.25l54.845,-375.296l54.845,375.296c154.166,12.885 293.135,79.591 398.039,181.25c-9.338,5.111 -18.593,10.506 -27.713,16.106c-97.524,-91.909 -224.788,-152.6 -365.748,-166.025l64.265,439.754l-123.689,132.223l0,-794.171l-95.215,692.387l-28.474,-30.438l64.265,-439.754c-140.959,13.425 -268.224,74.116 -365.748,166.025c-9.12,-5.6 -18.375,-10.995 -27.713,-16.106Zm1054.336,218.115c25.239,60.746 41.538,126.126 47.252,194.495l375.296,54.845l-375.296,54.845c-5.714,68.369 -22.014,133.749 -47.252,194.495l0,-97.57c7.552,-29.977 12.919,-60.819 15.922,-92.346l-15.922,2.327l0,-61.751l238.117,0l-238.117,-32.745l0,-29.006l15.922,2.327c-3.003,-31.527 -8.37,-62.369 -15.922,-92.346l0,-97.57Zm-155.842,723.737c-104.014,97.749 -240.135,161.718 -390.764,174.307l-54.845,375.296l-54.845,-375.296c-150.629,-12.59 -286.75,-76.558 -390.764,-174.307l39.346,-5.944c94.812,82.312 214.819,136.346 346.84,148.92l-48.259,-330.228l107.683,130.02l0,422.403l69.321,-504.089l38.362,-48.334l-48.259,330.228c132.02,-12.574 252.028,-66.608 346.84,-148.92l39.346,5.944Z" style="fill:#daa520;"/><path id="Letra-M" serif:id="Letra M" d="M1024,1234.146l-580.619,-701.359c139.835,15.294 318.998,196.643 318.998,196.643l261.62,279.67l261.62,-279.67c0,0 179.163,-181.348 318.998,-196.643l-580.619,701.359Zm0,179.163l-456.078,-574.634l0,347.402c0,196.643 -187.903,273.115 -187.903,273.115c69.917,-63.363 63.363,-185.718 63.363,-185.718l0,-644.551l580.619,738.503l580.619,-738.503l0,644.551c0,0 -6.555,122.356 63.363,185.718c0,0 -187.903,-76.472 -187.903,-273.115l0,-347.402l-456.078,574.634Zm272.72,-306.413l32.162,-40.734l0,338.583l339.1,72.714l52.438,37.755l-462.853,-69.917l39.154,-39.154l0,-299.247Zm-545.439,0l0,299.247l39.154,39.154l-462.853,69.917l52.438,-37.755l339.1,-72.714l0,-338.583l32.162,40.734Z" style="fill:#daa520;"/></g><g><path d="M2271.675,465.341l0,487.021l104.537,0l0,-487.021l-104.537,0Zm359.731,0l0,487.021l105.767,0l0,-487.021l-105.767,0Zm-102.692,487.021l89.779,-267.492l0,-219.528l-32.591,0l-81.785,334.519l-83.63,-334.519l-31.976,0l0,215.839l86.704,271.182l53.498,0Z" style="fill:#fff;fill-rule:nonzero;"/><path d="M2895.209,465.341l-123.6,487.021l110.686,0l86.089,-381.253l38.125,198.006l-64.567,0l-15.988,81.17l97.158,0l22.752,102.078l117.451,0l-123.6,-487.021l-144.507,0Z" style="fill:#fff;fill-rule:nonzero;"/><path d="M3117.811,465.341l0,81.785l346.818,0l0,-81.785l-346.818,0Zm116.836,487.021l111.916,0l0,-386.173l-111.916,0l0,386.173Z" style="fill:#fff;fill-rule:nonzero;"/><path d="M3632.504,739.597l137.743,0l0,-81.17l-137.743,0l0,81.17Zm0,-192.472l146.352,0l0,-81.785l-146.352,0l0,81.785Zm146.352,320.991l-146.352,0l0,84.245l146.352,0l0,-84.245Zm-276.101,-402.776l0,487.021l112.531,0l0,-487.021l-112.531,0Z" style="fill:#fff;fill-rule:nonzero;"/><path d="M3827.435,465.341l0,487.021l104.537,0l0,-487.021l-104.537,0Zm359.731,0l0,487.021l105.767,0l0,-487.021l-105.767,0Zm-102.692,487.021l89.779,-267.492l0,-219.528l-32.591,0l-81.785,334.519l-83.63,-334.519l-31.976,0l0,215.839l86.704,271.182l53.498,0Z" style="fill:#fff;fill-rule:nonzero;"/><path d="M4450.969,465.341l-123.6,487.021l110.686,0l86.089,-381.253l38.125,198.006l-64.567,0l-15.988,81.17l97.158,0l22.752,102.078l117.451,0l-123.6,-487.021l-144.507,0Zm65.797,-39.97l108.842,-67.642l-127.904,0l-54.728,67.642l73.791,0Z" style="fill:#fff;fill-rule:nonzero;"/><path d="M4673.571,465.341l0,81.785l346.818,0l0,-81.785l-346.818,0Zm116.836,487.021l111.916,0l0,-386.173l-111.916,0l0,386.173Z" style="fill:#fff;fill-rule:nonzero;"/><rect x="5058.514" y="465.341" width="114.991" height="487.021" style="fill:#fff;fill-rule:nonzero;"/><path d="M5413.941,534.212c32.591,1.845 48.579,17.833 48.579,49.194l0,51.654l116.836,0l0,-45.504c0,-89.164 -55.343,-134.669 -165.415,-135.283l0,79.94Zm0,427.988c110.072,-2.46 165.415,-49.194 165.415,-140.203l0,-52.269l-116.836,0l0,67.027c0,28.287 -15.988,43.66 -48.579,46.734l0,78.71Zm-182.018,-143.278c0,91.624 52.884,138.973 159.266,143.278l0,-78.71c-30.131,-4.304 -44.89,-19.678 -44.89,-46.734l0,-253.349c0,-28.901 14.758,-44.89 44.89,-48.579l0,-79.94c-106.382,4.919 -159.266,49.194 -159.266,132.824l0,231.212Z" style="fill:#fff;fill-rule:nonzero;"/><path d="M5731.857,465.341l-123.6,487.021l110.686,0l86.089,-381.253l38.125,198.006l-64.567,0l-15.988,81.17l97.158,0l22.752,102.078l117.451,0l-123.6,-487.021l-144.507,0Z" style="fill:#fff;fill-rule:nonzero;"/><path d="M2400.194,1286.265l38.74,0c41.815,0 60.263,14.758 60.263,49.809l0,228.137c0,29.516 -17.218,43.045 -59.033,43.045l-39.97,0l0,83.015l56.573,0c105.152,0 157.421,-46.119 157.421,-138.973l0,-210.919c0,-91.624 -52.269,-137.128 -156.191,-137.128l-57.803,0l0,83.015Zm-128.519,-83.015l0,487.021l111.301,0l0,-487.021l-111.301,0Z" style="fill:#fff;fill-rule:nonzero;"/><path d="M2802.355,1477.507l137.743,0l0,-81.17l-137.743,0l0,81.17Zm0,-192.472l146.352,0l0,-81.785l-146.352,0l0,81.785Zm146.352,320.991l-146.352,0l0,84.245l146.352,0l0,-84.245Zm-276.101,-402.776l0,487.021l112.531,0l0,-487.021l-112.531,0Z" style="fill:#fff;fill-rule:nonzero;"/><path d="M3334.88,1477.507l137.743,0l0,-81.17l-137.743,0l0,81.17Zm0,-192.472l146.352,0l0,-81.785l-146.352,0l0,81.785Zm146.352,320.991l-146.352,0l0,84.245l146.352,0l0,-84.245Zm-276.101,-402.776l0,487.021l112.531,0l0,-487.021l-112.531,0Z" style="fill:#fff;fill-rule:nonzero;"/><path d="M3529.811,1203.251l0,487.021l111.916,0l0,-487.021l-111.916,0Zm262.573,405.236l-129.134,0l0,81.785l129.134,0l0,-81.785Z" style="fill:#fff;fill-rule:nonzero;"/><rect x="3833.584" y="1203.251" width="114.991" height="487.021" style="fill:#fff;fill-rule:nonzero;"/><path d="M3989.775,1203.251l0,81.785l346.818,0l0,-81.785l-346.818,0Zm116.836,487.021l111.916,0l0,-386.173l-111.916,0l0,386.173Z" style="fill:#fff;fill-rule:nonzero;"/><path d="M4504.467,1477.507l137.743,0l0,-81.17l-137.743,0l0,81.17Zm0,-192.472l146.352,0l0,-81.785l-146.352,0l0,81.785Zm146.352,320.991l-146.352,0l0,84.245l146.352,0l0,-84.245Zm-276.101,-402.776l0,487.021l112.531,0l0,-487.021l-112.531,0Z" style="fill:#fff;fill-rule:nonzero;"/></g></g></svg>